 <svg  version="1.0" xmlns="http://www.w3.org/2000/svg"  width="153.000000pt" height="153.000000pt" viewBox="0 0 153.000000 153.000000"  preserveAspectRatio="xMidYMid meet">  <g transform="translate(0.000000,153.000000) scale(0.100000,-0.100000)" fill="#de38ff" stroke="none"> <path d="M1310 770 l0 -600 60 0 60 0 0 600 0 600 -60 0 -60 0 0 -600z"/> <path d="M305 1089 c-4 -5 -17 -14 -28 -20 -12 -5 -29 -13 -37 -17 -51 -29 -84 -42 -105 -42 -31 0 -43 -17 -47 -70 -3 -42 -1 -45 23 -48 14 -2 31 4 39 12 7 9 18 16 25 16 7 0 18 7 25 15 7 8 24 15 38 15 l25 0 -5 -297 c-3 -164 -7 -305 -9 -313 -3 -12 9 -16 61 -18 l65 -3 0 391 0 390 -32 0 c-17 0 -35 -5 -38 -11z"/> <path d="M690 1079 c-73 -39 -110 -90 -144 -199 -21 -67 -19 -313 3 -370 52 -133 120 -190 229 -190 165 0 262 149 262 402 0 187 -50 302 -157 361 -42 23 -146 21 -193 -4z m161 -102 c55 -50 71 -120 67 -287 -5 -152 -17 -196 -68 -247 -46 -46 -94 -46 -136 -1 -56 61 -64 94 -64 256 0 174 16 238 72 284 45 38 84 36 129 -5z"/> </g> </svg> 